<svg width="88" height="100" viewBox="0 0 88 100" fill="none" xmlns="http://www.w3.org/2000/svg">
<g clip-path="url(#clip0_2001_131)">
<path d="M6.58826 1.5144C7.98336 1.40188 9.37884 1.73327 10.5746 2.46069C11.7702 3.18812 12.706 4.27465 13.2474 5.56519C13.7888 6.85576 13.908 8.28447 13.5892 9.64722C13.2705 11.01 12.5298 12.2375 11.472 13.1541L10.8578 13.6863L10.9681 14.49L11.7308 20.0779L12.0414 22.3572L14.0013 21.1531C14.6813 20.7355 15.7455 20.1552 17.2836 19.3894L17.2865 19.3943L17.5238 19.2693L17.5209 19.2634C23.8956 15.6882 31.0193 13.6539 38.3226 13.325H38.5385C41.755 13.3136 44.9548 13.7904 48.0287 14.738L48.0502 14.7439L48.6566 14.9207C52.1655 16.0826 55.5917 17.4811 58.9115 19.1062L58.9105 19.1091C60.4209 19.8499 62.1176 20.2625 63.9047 20.2625H63.934L64.1429 20.2585H64.1517C66.337 20.2259 68.5022 19.8387 70.5638 19.114L70.7611 19.0574L70.7836 19.0505L70.806 19.0427C72.756 18.4072 74.6427 17.5905 76.4398 16.6023L76.4496 16.5964C78.011 15.7223 79.4863 14.9351 80.8754 14.2351L80.7504 13.988L80.891 14.2283L80.9281 14.2068L80.7455 13.863L80.9496 14.1931C81.5809 13.8038 82.3002 13.5128 83.1185 13.3259C83.2999 13.3384 83.4783 13.3802 83.6459 13.4519C83.7719 13.5058 83.8893 13.5767 83.9974 13.6599L84.2269 13.8806C84.3852 14.0329 84.5104 14.2165 84.5961 14.4187C84.6816 14.6208 84.7257 14.8379 84.725 15.0574V53.9587H86.1078L84.7289 54.0623C84.7518 54.3672 84.6611 54.6684 84.4769 54.9109C84.0674 55.3045 83.5853 55.6453 83.0209 55.9314L83.017 55.9246L82.8373 56.0281L82.8383 56.03C77.3583 59.3613 71.1542 61.3188 64.7533 61.7322C62.6849 61.7117 60.7136 61.3353 59.0258 60.7039L58.9857 60.6882L58.9447 60.6755L58.7426 60.613C56.9821 59.9945 55.2963 59.2352 53.8539 58.4333L53.8568 58.4294C51.9047 57.3619 49.8484 56.4981 47.7211 55.8474L47.724 55.8406C45.2497 55.0335 42.6046 54.6003 39.8666 54.6003H39.8051L39.7806 54.6013L39.6517 54.6052H39.6342L39.6176 54.6062C32.1259 55.0203 24.8266 57.1351 18.2738 60.7898L17.3793 61.2888L17.5179 62.3025L21.9398 94.7429V94.7439C21.9999 95.1758 21.9733 95.6161 21.8627 96.0378C21.7521 96.4594 21.5594 96.8552 21.2953 97.2019C21.031 97.5488 20.6999 97.8398 20.3226 98.0583C19.9927 98.2495 19.6325 98.3818 19.2582 98.45L19.1146 98.4724C18.96 98.4934 18.7947 98.5036 18.6263 98.5037C16.9714 98.5002 15.5922 97.2739 15.3646 95.6462L4.3656 14.8806L4.27087 14.1843L3.67419 13.8113L3.64099 13.7908L3.63416 13.7859L3.41345 13.6443C2.3282 12.9137 1.48157 11.877 0.981812 10.6638C0.448807 9.36974 0.337792 7.9405 0.665405 6.57983C0.993044 5.21911 1.74234 3.99633 2.80603 3.08667C3.86962 2.1772 5.19338 1.62697 6.58826 1.5144Z" stroke="#023665" stroke-width="3"/>
</g>
<defs>
<clipPath id="clip0_2001_131">
<rect width="87.5" height="100" fill="white"/>
</clipPath>
</defs>
</svg>
