<svg width="100" height="100" viewBox="0 0 100 100" fill="none" xmlns="http://www.w3.org/2000/svg">
<path d="M41.6667 50.0001C41.6667 52.2102 42.5447 54.3298 44.1075 55.8926C45.6703 57.4554 47.7899 58.3334 50 58.3334C52.2102 58.3334 54.3298 57.4554 55.8926 55.8926C57.4554 54.3298 58.3334 52.2102 58.3334 50.0001C58.3334 47.7899 57.4554 45.6703 55.8926 44.1075C54.3298 42.5447 52.2102 41.6667 50 41.6667C47.7899 41.6667 45.6703 42.5447 44.1075 44.1075C42.5447 45.6703 41.6667 47.7899 41.6667 50.0001Z" stroke="#023665" stroke-width="3" stroke-linecap="round" stroke-linejoin="round"/>
<path d="M40.0333 73.675C29.3778 70.7194 20.2 62.8278 12.5 50C22.5 33.3333 35 25 50 25C65 25 77.5 33.3333 87.5 50M74.1667 86.7375L65.1167 91.4791C64.8481 91.6189 64.546 91.6813 64.244 91.6593C63.942 91.6373 63.6521 91.5319 63.4066 91.3547C63.1611 91.1775 62.9697 90.9355 62.8538 90.6558C62.7378 90.3761 62.7019 90.0697 62.75 89.7708L64.4792 79.725L57.1583 72.6125C56.9398 72.4012 56.7851 72.1328 56.7118 71.8379C56.6386 71.5429 56.6497 71.2333 56.744 70.9443C56.8383 70.6554 57.0119 70.3988 57.2451 70.2038C57.4782 70.0089 57.7615 69.8833 58.0625 69.8416L68.1792 68.375L72.7042 59.2375C72.8395 58.9653 73.0481 58.7363 73.3065 58.5763C73.5648 58.4162 73.8627 58.3314 74.1667 58.3314C74.4706 58.3314 74.7685 58.4162 75.0269 58.5763C75.2853 58.7363 75.4938 58.9653 75.6292 59.2375L80.1542 68.375L90.2708 69.8416C90.571 69.8848 90.8531 70.0111 91.0852 70.2063C91.3173 70.4015 91.4902 70.6577 91.5843 70.946C91.6784 71.2343 91.6899 71.5432 91.6176 71.8377C91.5452 72.1322 91.3919 72.4006 91.175 72.6125L83.8542 79.725L85.5792 89.7666C85.6309 90.0661 85.5977 90.374 85.4832 90.6556C85.3688 90.9371 85.1777 91.1808 84.9316 91.3592C84.6856 91.5375 84.3945 91.6433 84.0913 91.6645C83.7882 91.6857 83.4852 91.6215 83.2167 91.4791L74.1667 86.7375Z" stroke="#023665" stroke-width="3" stroke-linecap="round" stroke-linejoin="round"/>
</svg>
